<svg version="1.1" id="Layer_1" xmlns="http://www.w3.org/2000/svg" xmlns:xlink="http://www.w3.org/1999/xlink" x="0px" y="0px" width="100%" viewBox="0 0 1536 1024" enable-background="new 0 0 1536 1024" xml:space="preserve">
<path fill="#FEFEFE" opacity="1" stroke="none" d="M1099,1025 C732.67,1025 366.83,1025 1,1025 C1,683.67 1,342.33 1,1 C513,1 1025,1 1537,1 C1537,342.33 1537,683.67 1537,1025 C1391.17,1025 1245.33,1025 1099,1025 M772.72,669.45 C772.19,669.17 771.66,668.89 770.7,668.1 C753.24,658.62 734.43,662.37 722.13,677.89 C714.03,688.1 712.45,700.02 714.12,712.4 C716.02,726.5 723.05,737.56 736.47,743.18 C749.84,748.78 762.8,747.88 774.29,738.01 C774.87,737.51 775.55,737.13 776.35,736.58 C776.93,739.07 777.41,741.17 778.66,743.59 C785.23,743.59 791.8,743.59 798.42,743.59 C798.42,717.15 798.42,691.29 798.42,665.18 C791.73,665.18 785.42,665.13 779.11,665.26 C778.41,665.28 777.74,666.38 776.92,667.78 C776.97,668.57 777.01,669.37 776.5,670.99 C775.34,670.65 774.18,670.32 773,670 C773,670 773.02,669.98 772.72,669.45 M750.28,500.19 C748.46,493.12 746.64,486.06 744.82,478.22 C744.09,474.06 743.03,469.94 742.7,465.76 C741.02,444.63 752.38,424.48 771.32,414.86 C788.74,406.02 805.96,407.08 823.32,416.73 C837.24,425.56 845.77,438.26 849.84,454.04 C853.07,466.59 856,479.22 859.13,491.8 C861.87,502.84 864.71,513.86 867.6,525.24 C869.33,524.34 870.51,523.78 871.64,523.12 C905.14,503.45 930.48,476.09 948.05,441.54 C960.05,417.96 966.84,392.85 968.61,366.5 C969.84,348.16 968.58,329.92 963.96,311.24 C958.97,297.22 954.64,282.9 948.74,269.27 C945.11,260.9 939.07,253.59 934.07,245.09 C927.09,236.61 920.1,228.13 912.81,219.08 C911.45,217.62 910.17,216.08 908.71,214.72 C888.5,195.96 865.69,181.28 839.82,171.62 C825.97,166.45 811.84,162.12 796.14,160.97 C792.44,160.38 788.74,159.79 784.16,159.07 C789.36,180.62 794.35,201.35 799.4,222.93 C800.44,227.76 801.37,232.61 802.56,237.41 C808.13,259.8 799.64,281.29 780.13,293.25 C766.95,301.32 752.77,302.7 737.41,298.18 C719,291.58 707.68,278.44 702.92,259.77 C698.28,241.56 694.23,223.2 689.92,204.89 C687.84,196.08 685.78,187.26 683.64,178.12 C681.54,179.09 680.03,179.76 678.55,180.49 C654.9,192.06 634.42,207.83 617.32,227.8 C575.46,276.7 560.75,333.04 574.21,395.84 C592.53,481.28 666.56,544.34 756.41,552.49 C758.49,552.62 760.57,552.75 763.63,552.93 C759.07,535.13 754.7,518.08 750.28,500.19 M834.1,616.89 C830.39,616.96 826.68,617.03 822.61,616.91 C822.08,616.97 821.56,617.04 820.28,616.95 C819.51,617 818.74,617.05 817.39,616.9 C813.86,616.3 814.7,618.88 814.7,620.7 C814.7,660.15 814.72,699.61 814.75,739.07 C814.75,740.53 814.91,741.99 815,743.49 C822.38,743.49 829.46,743.49 836.92,743.49 C836.92,741.36 836.92,739.56 836.92,737.76 C836.93,718.11 836.93,698.47 836.94,678.82 C836.95,659.51 837.02,640.2 836.92,620.89 C836.91,619.6 835.68,618.32 834.1,616.89 M643.92,618.75 C643.49,618.15 643.08,617.02 642.64,617.01 C635.74,616.9 628.83,616.93 622.14,616.93 C622.14,659.52 622.14,701.4 622.14,743.39 C629.27,743.39 636.02,743.39 642.86,743.39 C643.12,741.3 643.32,739.58 643.55,737.69 C664.28,750.11 682.76,748.5 695.41,733.4 C709.03,717.16 708.56,691.66 694.18,675.04 C687.78,667.65 679.41,663.8 669.74,663.04 C660.15,662.29 651.41,664.63 643.93,671.89 C643.93,654 643.93,636.85 643.92,618.75 M485.27,712.5 C485.27,722.76 485.27,733.01 485.27,743.35 C492.93,743.35 499.97,743.35 506.87,743.35 C506.87,725.31 507.42,707.66 506.67,690.07 C506.19,678.73 499.65,670.35 489,666.06 C477.27,661.33 465.88,662.2 455.42,669.88 C454.47,670.57 453.55,671.31 452.03,672.48 C452.03,653.48 452.03,635.37 452.03,617.18 C444.56,617.18 437.36,617.18 430.45,617.18 C430.45,659.48 430.45,701.36 430.45,743.3 C437.78,743.3 444.69,743.3 451.83,743.3 C451.83,729.75 451.67,716.6 451.93,703.45 C452,699.38 452.58,695.09 454,691.3 C456.6,684.43 463.64,681.36 471.74,682.72 C479.9,684.1 484.52,688.75 485.02,696.52 C485.34,701.5 485.21,706.51 485.27,712.5 M604.14,704.5 C604.14,691.55 604.14,678.59 604.14,665.36 C596.65,665.36 589.57,665.36 582.23,665.36 C582.1,667.64 581.99,669.69 581.84,672.42 C580.7,671.59 580.07,671.16 579.47,670.69 C564.1,658.57 541.82,660.75 529.19,675.63 C518.99,687.64 516.76,701.6 520.13,716.45 C527.27,747.86 563.38,754.22 580.2,737.44 C580.6,737.04 581.2,736.83 581.86,736.44 C582.03,738.93 582.17,741.05 582.33,743.37 C589.66,743.37 596.72,743.37 604.14,743.37 C604.14,730.47 604.14,717.98 604.14,704.5 M1053.04,666.43 C1033.99,676.21 1025.64,697.88 1032.46,719.86 C1037.41,735.81 1051.14,746.08 1067.81,746.47 C1077.39,746.7 1085.55,743.33 1092.85,736.38 C1093.14,739.22 1093.36,741.28 1093.59,743.49 C1100.88,743.49 1107.9,743.49 1114.99,743.49 C1114.99,717.3 1114.99,691.54 1114.99,665.55 C1107.71,665.55 1100.66,665.55 1093.62,665.55 C1093.36,667.96 1093.14,670 1092.85,672.74 C1080.77,662.04 1067.75,660.79 1053.04,666.43 M927.5,688.5 C927.5,680.88 927.5,673.26 927.5,665.4 C920,665.4 913.07,665.4 905.67,665.4 C905.67,668.39 905.69,671.19 905.66,673.99 C905.53,687.3 905.95,700.65 905.02,713.91 C904.4,722.87 896.82,727.87 887.57,727.2 C878.57,726.55 873.27,721.32 873,712.01 C872.69,701.02 872.88,690.02 872.86,679.03 C872.85,674.57 872.86,670.12 872.86,665.58 C865.27,665.58 858.24,665.58 851.08,665.58 C851.08,678.5 850.99,690.99 851.12,703.47 C851.18,709.79 851.05,716.19 852.06,722.38 C853.77,732.89 859.85,740.58 870.21,743.56 C881.7,746.87 892.98,746.16 902.87,738.25 C903.68,737.6 904.66,737.16 905.83,736.46 C906.04,739.06 906.21,741.15 906.4,743.51 C913.41,743.51 920.17,743.51 927.51,743.51 C927.51,725.39 927.51,707.45 927.5,688.5 M964.29,670.51 C964.29,668.89 964.29,667.26 964.29,665.74 C956.88,665.74 950.02,665.74 943.3,665.74 C943.3,691.92 943.3,717.67 943.3,743.66 C950.36,743.66 957.11,743.66 964.42,743.66 C964.42,735.48 964.35,727.52 964.44,719.56 C964.53,711.74 964.29,703.88 965.12,696.13 C966.03,687.56 971.87,682.98 980.45,682.79 C991.57,682.55 997.61,688.76 997.65,700.67 C997.69,713.16 997.6,725.65 997.58,738.14 C997.57,739.93 997.57,741.72 997.57,743.68 C1005.09,743.68 1012.02,743.68 1019.06,743.68 C1019.24,742.84 1019.5,742.21 1019.5,741.57 C1019.44,725.59 1019.52,709.6 1019.23,693.62 C1019.01,681.43 1013.61,671.85 1002.25,667.06 C990.23,661.99 978.24,662.27 967.37,670.79 C966.65,671.35 965.39,671.21 964.29,670.51z"/>
<path fill="#2D4581" opacity="1" stroke="none" d="M755.91,552.18 C666.56,544.34 592.53,481.28 574.21,395.84 C560.75,333.04 575.46,276.7 617.32,227.8 C634.42,207.83 654.9,192.06 678.55,180.49 C680.03,179.76 681.54,179.09 683.64,178.12 C685.78,187.26 687.84,196.08 689.92,204.89 C694.23,223.2 698.28,241.56 702.92,259.77 C707.68,278.44 719,291.58 737.71,298.75 C739.59,301.17 740.82,303.62 742.8,304.77 C750.96,309.5 759.11,314.4 767.71,318.21 C787.1,326.79 807.07,329.37 827.66,322.28 C850.15,314.52 865.29,299.51 873.27,276.77 C874.74,271.81 875.93,267.09 877.11,262.36 C877.8,259.58 878.48,256.79 879.3,254.38 C879.65,259.48 879.85,264.19 880.04,269.32 C878.74,275.15 877.62,280.61 876.15,285.97 C870.56,306.37 858.85,322.52 841.85,334.97 C822.34,349.27 800.25,353.55 776.53,352.97 C765.32,352.69 753.8,353.02 742.89,355.3 C722.83,359.49 705.99,369.93 692.77,386.31 C675.65,406.38 668.2,429.45 670.25,455.34 C671.61,472.64 676.53,488.93 687.04,503.51 C694.61,514.42 703.1,524.02 714.07,531.66 C716.43,533.31 718.6,534.7 720.98,536.38 C730.34,540.91 739.5,545.18 748.69,549.38 C751.03,550.45 753.5,551.25 755.91,552.18z"/>
<path fill="#FD845D" opacity="1" stroke="none" d="M693.05,386.15 C705.99,369.93 722.83,359.49 742.89,355.3 C753.8,353.02 765.32,352.69 776.53,352.97 C800.25,353.55 822.34,349.27 841.85,334.97 C858.85,322.52 870.56,306.37 876.15,285.97 C877.62,280.61 878.74,275.15 880.23,269.06 C887.73,260.57 896.45,254.93 906.24,250.69 C907.89,249.98 909.48,247.51 909.78,245.64 C911.14,237.01 912.04,228.31 913.11,219.64 C920.1,228.13 927.09,236.61 933.9,245.75 C930.37,248.78 929,251.88 928.87,256.11 C928.71,261.28 931.47,264.8 934.07,268.64 C937.42,273.6 936.82,276.62 932.26,280.49 C931.3,281.31 930.67,282.53 929.98,283.63 C927.29,287.91 924.37,292.08 922.08,296.57 C920.67,299.34 919.17,302.75 919.56,305.62 C920.72,314.02 916.12,322.14 908.03,324.94 C905.5,325.81 902.76,327.23 901.11,329.22 C897.24,333.9 894.03,339.12 890.44,344.03 C889.3,345.59 888.03,347.5 886.39,348.16 C874.25,353.03 866.64,363.33 857.83,372.04 C852.41,377.4 847.6,382.72 839.64,384.5 C835.92,385.32 832.25,388 829.45,390.74 C826.63,393.5 825.02,397.45 822.7,400.75 C820.94,403.27 818.91,405.6 816.59,408.02 C806.88,404.28 797.12,401.35 788.32,396.64 C765.75,384.54 742.96,381.02 719.61,393.42 C713.15,396.84 707.84,402.41 701.64,406.96 C699.74,404.34 698.75,401.05 696.54,399.32 C691.79,395.59 690.74,391.46 693.05,386.15z"/>
<path fill="#FD6557" opacity="1" stroke="none" d="M963.92,312.04 C968.58,329.92 969.84,348.16 968.61,366.5 C966.84,392.85 960.05,417.96 948.05,441.54 C930.48,476.09 905.14,503.45 871.64,523.12 C870.51,523.78 869.33,524.34 867.6,525.24 C864.71,513.86 861.87,502.84 859.13,491.8 C856,479.22 853.07,466.59 849.84,454.04 C845.77,438.26 837.24,425.56 823.15,416.02 C822.98,413.54 822.99,411.77 823.4,410.01 C840.22,414.18 856.79,415.08 873.62,413.07 C892.13,410.86 909.3,405.05 924.29,394.01 C946.29,377.81 958.4,355.59 961.1,328.62 C962.73,323.11 963.28,317.57 963.92,312.04z"/>
<path fill="#FE7E5E" opacity="1" stroke="none" d="M963.94,311.64 C963.28,317.57 962.73,323.11 961.1,328.62 C958.4,355.59 946.29,377.81 924.29,394.01 C909.3,405.05 892.13,410.86 873.62,413.07 C856.79,415.08 840.22,414.18 823.04,409.97 C820.51,409.29 818.75,408.65 816.99,408.02 C818.91,405.6 820.94,403.27 822.7,400.75 C825.02,397.45 826.63,393.5 829.45,390.74 C832.25,388 835.92,385.32 839.64,384.5 C847.6,382.72 852.41,377.4 857.83,372.04 C866.64,363.33 874.25,353.03 886.39,348.16 C888.03,347.5 889.3,345.59 890.44,344.03 C894.03,339.12 897.24,333.9 901.11,329.22 C902.76,327.23 905.5,325.81 908.03,324.94 C916.12,322.14 920.72,314.02 919.56,305.62 C919.17,302.75 920.67,299.34 922.08,296.57 C924.37,292.08 927.29,287.91 929.98,283.63 C930.67,282.53 931.3,281.31 932.26,280.49 C936.82,276.62 937.42,273.6 934.07,268.64 C931.47,264.8 928.71,261.28 928.87,256.11 C929,251.88 930.37,248.78 933.91,246.1 C939.07,253.59 945.11,260.9 948.74,269.27 C954.64,282.9 958.97,297.22 963.94,311.64z"/>
<path fill="#FC6043" opacity="1" stroke="none" d="M816.59,408.02 C818.75,408.65 820.51,409.29 822.63,409.96 C822.99,411.77 822.98,413.54 822.96,415.75 C805.96,407.08 788.74,406.02 771.32,414.86 C752.38,424.48 741.02,444.63 742.7,465.76 C743.03,469.94 744.09,474.06 744.47,478.66 C742.03,479.83 740.17,482.74 737.7,479.5 C735.73,476.91 735.24,474.5 737.47,471.88 C738.33,470.89 739.28,469.95 739.97,468.85 C740.44,468.09 740.91,466.41 740.72,466.3 C737.64,464.55 734.14,461.24 731.35,461.73 C723.08,463.2 719.47,468.87 718.92,477.37 C718.63,481.92 718.24,486.5 713.41,489.38 C705.86,493.88 703.81,500.59 709.74,507.37 C710.88,508.67 711.74,510.53 711.96,512.23 C712.77,518.6 713.27,525.01 713.88,531.4 C703.1,524.02 694.61,514.42 687.06,503.11 C686.05,499.39 685.23,496.35 684.17,493.41 C678.12,476.56 677.7,459.5 682.41,442.33 C686.06,429 693.01,417.41 702,407 C707.84,402.41 713.15,396.84 719.61,393.42 C742.96,381.02 765.75,384.54 788.32,396.64 C797.12,401.35 806.88,404.28 816.59,408.02z"/>
</svg>
